<?xml version="1.0" standalone="no"?>
<!DOCTYPE svg PUBLIC "-//W3C//DTD SVG 20010904//EN"
 "http://www.w3.org/TR/2001/REC-SVG-20010904/DTD/svg10.dtd">
<svg version="1.0" xmlns="http://www.w3.org/2000/svg"
 width="700.000000pt" height="700.000000pt" viewBox="0 0 700.000000 700.000000"
 preserveAspectRatio="xMidYMid meet">
<metadata>
Created by potrace 1.11, written by Peter Selinger 2001-2013
</metadata>
<g transform="translate(0.000000,700.000000) scale(0.100000,-0.100000)"
fill="#000000" stroke="none">
<path d="M2145 6993 c-544 -50 -1032 -268 -1419 -634 -376 -356 -620 -827
-703 -1359 -17 -107 -18 -215 -18 -1500 0 -1531 -3 -1460 65 -1730 118 -473
384 -904 744 -1209 373 -316 810 -500 1305 -550 141 -15 2621 -15 2762 0 1036
105 1862 843 2069 1848 50 244 52 308 48 1731 -4 1449 -1 1372 -68 1640 -168
672 -616 1228 -1235 1530 -216 106 -421 171 -685 217 -85 15 -239 17 -1460 18
-751 1 -1383 0 -1405 -2z m3245 -1738 l0 -395 -1110 0 -1110 0 0 -560 0 -560
980 0 980 0 0 -395 0 -395 -980 0 -980 0 0 -775 0 -775 -495 0 -495 0 0 2118
c0 1165 3 2122 7 2125 3 4 726 7 1605 7 l1598 0 0 -395z"/>
</g>
</svg>
