<svg version="1.0" xmlns="http://www.w3.org/2000/svg" width="933.333" height="933.333" viewBox="0 0 700 700"><path d="M214.5.7c-54.4 5-103.2 26.8-141.9 63.4C35 99.7 10.6 146.8 2.3 200 .6 210.7.5 221.5.5 350 .5 503.1.2 496 7 523c11.8 47.3 38.4 90.4 74.4 120.9 37.3 31.6 81 50 130.5 55 14.1 1.5 262.1 1.5 276.2 0 103.6-10.5 186.2-84.3 206.9-184.8 5-24.4 5.2-30.8 4.8-173.1-.4-144.9-.1-137.2-6.8-164-16.8-67.2-61.6-122.8-123.5-153C547.9 13.4 527.4 6.9 501 2.3 492.5.8 477.1.6 355 .5 279.9.4 216.7.5 214.5.7zM539 174.5V214H317v112h196v79H317v155h-99V348.2c0-116.5.3-212.2.7-212.5.3-.4 72.6-.7 160.5-.7H539v39.5z"/></svg>