<svg xmlns="http://www.w3.org/2000/svg" preserveAspectRatio="xMinYMin meet" viewBox="0 0 256 212">
  <defs/>
  <path fill="#725ac1" d="M0 32.7h59.85v17.6H0V32.7zM0 0h59.85v17.6H0V0zm107.38 65.13H0v17.6h103.36c11.31 0 37.72.26 47.52 16.1v-9.8c-4.77-15.6-18.86-23.9-43.5-23.9zm.25 32.7H0v17.6h103.36c25.14 0 40.99 1 47.52 4.52v-7.8c-5.03-12.31-26.15-14.33-43.25-14.33zm-.25 82.98H0v-17.6h103.36c11.31 0 37.72-.25 47.52-16.1v9.8c-4.77 15.6-18.86 23.9-43.5 23.9zm.25-32.7H0v-17.6h103.36c25.14 0 40.99-1 47.52-4.52v7.8c-5.03 12.32-26.15 14.33-43.25 14.33zm69.4 63.13H256v-10.82h-76.7c-6.79 0-22.88-.25-28.67-9.55v6.03c2.77 9.3 11.32 14.34 26.4 14.34zm-.24-19.87h78.96v-10.81H179.3c-15.34 0-24.9-.5-28.67-2.77v4.78c3.02 7.54 15.84 8.8 26.16 8.8z"/>
</svg>
