<svg xmlns="http://www.w3.org/2000/svg" viewBox="0 0 2000 2000">
  <defs/>
  <path fill="#E34E26" d="M352.73 1718.4L208.63 101.98h1582.74l-144.28 1616.55-647.47 179.49z"/>
  <path fill="#EF662A" d="M1000 234.11v1526.61l523.57-145.13 123.35-1381.48z"/>
  <path fill="#FFF" d="M503.47 432.38l53.44 599.52h687.14l-23.06 257.14-221.25 59.82-220.82-59.73-14.77-165.11h-199l28.46 318.28 406.09 112.79 406.6-112.79 54.51-608.63H738.23l-18.14-203.02H1478.77l17.76-198.27z"/>
  <g fill="#EBEBEB">
    <path d="M1000 432.38H503.47l53.44 599.52H1000V833.67H738.23l-18.14-203.02H1000zM1000 1348.77l-.26.09-220.82-59.73-14.77-165.11h-199l28.46 318.28 406.09 112.79.3-.09z"/>
  </g>
</svg>
